<?xml version="1.0" encoding="utf-8"?>
<!-- Generator: Adobe Illustrator 16.0.0, SVG Export Plug-In . SVG Version: 6.00 Build 0)  -->
<!DOCTYPE svg PUBLIC "-//W3C//DTD SVG 1.1//EN" "http://www.w3.org/Graphics/SVG/1.1/DTD/svg11.dtd">
<svg version="1.1" id="Livello_1" xmlns="http://www.w3.org/2000/svg" xmlns:xlink="http://www.w3.org/1999/xlink" x="0px" y="0px"
	 width="400px" height="400px" viewBox="0 0 400 400" style="enable-background:new 0 0 400 400;" xml:space="preserve">
<style type="text/css">
<![CDATA[
	.st0{opacity:0.298;}
	.st1{fill:#ADFEC9;}
	.st2{fill:#242A53;}
	.st3{fill:#245B62;}
	.st4{fill:#FF00FF;}
	.st5{fill:#FFFFFF;}
	.st6{fill:none;stroke:#FF00FF;stroke-width:6;stroke-miterlimit:10;}
	.st7{fill:#63CB9D;}
	.st8{fill:#010101;}
	.st9{fill:none;stroke:#000000;stroke-width:6;stroke-miterlimit:10;}
]]>
</style>
<g>
	<path d="M45.5,268.4v-28.1h18.3v5.2H52.3v6h8.6v5.2h-8.6v11.6H45.5z"/>
	<path d="M74.5,246.1v4.2c1.6-2.9,3.7-4.4,6.4-4.4v7h-1.7c-1.6,0-2.8,0.4-3.5,1.1c-0.8,0.7-1.2,2.1-1.2,3.9v10.6h-6.8v-22.3H74.5z"
		/>
	<path d="M86,265.5c-2-2.1-3-4.9-3-8.2c0-3.3,1-6.1,3-8.2c2-2.1,4.4-3.2,7.2-3.2c2.8,0,5,1.1,6.5,3.2v-2.9h6.8v22.3h-6.8v-3.2
		c-1.7,2.3-3.9,3.5-6.6,3.5S88,267.7,86,265.5z M98.3,261.4c1-1,1.5-2.3,1.5-4.1s-0.5-3.1-1.5-4.1c-1-0.9-2.1-1.4-3.4-1.4
		s-2.4,0.5-3.4,1.4c-1,1-1.5,2.3-1.5,4.1s0.5,3.1,1.5,4.1c1,0.9,2.1,1.4,3.4,1.4S97.3,262.3,98.3,261.4z"/>
	<path d="M117.8,246.1v3.3c1.4-2.3,3.7-3.5,6.8-3.5c1.7,0,3.1,0.4,4.4,1.1c1.3,0.7,2.3,1.8,3,3.2c0.8-1.3,1.9-2.4,3.2-3.1
		c1.3-0.8,2.8-1.2,4.4-1.2c2.7,0,4.9,0.8,6.5,2.5c1.6,1.7,2.4,4,2.4,7v13h-6.8v-12.1c0-1.4-0.4-2.6-1.1-3.3
		c-0.8-0.8-1.8-1.2-3.1-1.2c-1.3,0-2.4,0.4-3.1,1.2c-0.8,0.8-1.1,1.9-1.1,3.3v12.1h-6.8v-12.1c0-1.4-0.4-2.6-1.1-3.3
		c-0.8-0.8-1.8-1.2-3.1-1.2c-1.3,0-2.4,0.4-3.1,1.2c-0.8,0.8-1.1,1.9-1.1,3.3v12.1H111v-22.3H117.8z"/>
	<path d="M163,268.7c-3.3,0-5.9-1-8-3.1c-2.1-2.1-3.1-4.9-3.1-8.3c0-3.5,1-6.2,3.1-8.3c2.1-2.1,4.7-3.1,8-3.1c3.3,0,6,1,8.2,3
		s3.2,4.8,3.2,8.4c0,0.8-0.1,1.5-0.2,2.2h-15.4c0.1,1,0.6,1.8,1.3,2.4c0.7,0.6,1.6,0.9,2.4,0.9c0.9,0,1.5-0.1,1.9-0.3
		c0.4-0.2,0.7-0.3,0.9-0.5c0.2-0.2,0.5-0.5,0.8-0.9h7.4c-0.6,2.2-1.9,4-3.8,5.4C167.9,268,165.7,268.7,163,268.7z M165.9,252.7
		c-0.8-0.7-1.7-1-2.8-1c-1.1,0-2,0.3-2.8,1c-0.7,0.7-1.2,1.5-1.4,2.5h8.4C167.2,254.2,166.7,253.4,165.9,252.7z"/>
	<path d="M203.9,246.1h6.4l-6.7,22.3h-7.4l-3.1-13.2l-3.2,13.2h-7.4l-6.7-22.3h6.8l3.5,15.7l3.4-15.7h7.2l3.4,15.7L203.9,246.1z"/>
	<path d="M215.2,265.6c-2.3-2.1-3.4-4.9-3.4-8.3c0-3.4,1.1-6.2,3.4-8.3s5-3.1,8.3-3.1s6.1,1,8.3,3.1s3.3,4.8,3.3,8.3
		c0,3.4-1.1,6.2-3.3,8.3c-2.2,2.1-5,3.2-8.3,3.2S217.5,267.7,215.2,265.6z M226.9,261.4c0.9-1,1.4-2.3,1.4-4.2
		c0-1.8-0.5-3.2-1.4-4.1c-0.9-0.9-2-1.4-3.3-1.4c-1.3,0-2.4,0.5-3.3,1.4s-1.4,2.3-1.4,4.1c0,1.8,0.5,3.2,1.4,4.2
		c0.9,1,2.1,1.4,3.3,1.4C224.9,262.9,226,262.4,226.9,261.4z"/>
	<path d="M246.4,246.1v4.2c1.6-2.9,3.7-4.4,6.4-4.4v7h-1.7c-1.6,0-2.8,0.4-3.5,1.1c-0.8,0.7-1.2,2.1-1.2,3.9v10.6h-6.8v-22.3H246.4z
		"/>
	<path d="M263.4,268.4h-6.8v-29.6h6.8v16.6l6.9-9.3h9.2l-9.6,11.4l9.6,10.9h-9.1l-7-8.9V268.4z"/>
	<path d="M281.9,268.4v-29.6h6.8v29.6H281.9z"/>
	<path d="M302.6,268.7c-3.3,0-5.9-1-8-3.1c-2.1-2.1-3.1-4.9-3.1-8.3c0-3.5,1-6.2,3.1-8.3c2.1-2.1,4.7-3.1,8-3.1s6,1,8.2,3
		s3.2,4.8,3.2,8.4c0,0.8-0.1,1.5-0.2,2.2h-15.4c0.1,1,0.6,1.8,1.3,2.4c0.7,0.6,1.6,0.9,2.4,0.9c0.9,0,1.5-0.1,1.9-0.3
		c0.4-0.2,0.7-0.3,0.9-0.5c0.2-0.2,0.5-0.5,0.8-0.9h7.4c-0.6,2.2-1.9,4-3.8,5.4C307.5,268,305.2,268.7,302.6,268.7z M305.5,252.7
		c-0.8-0.7-1.7-1-2.8-1c-1.1,0-2,0.3-2.8,1c-0.7,0.7-1.2,1.5-1.4,2.5h8.4C306.8,254.2,306.3,253.4,305.5,252.7z"/>
	<path d="M316.9,252.8c0-2,0.8-3.6,2.5-5c1.7-1.3,4-2,6.8-2c2.9,0,5.2,0.7,6.9,2c1.8,1.3,2.7,3.1,2.8,5.4h-7
		c-0.1-0.8-0.3-1.3-0.8-1.6c-0.5-0.3-1.1-0.4-2-0.4c-1.8,0-2.7,0.5-2.7,1.6c0,1,1.1,1.7,3.3,2c2.2,0.4,4.2,0.9,6,1.7
		c0.9,0.4,1.7,1,2.3,1.9c0.6,0.9,0.9,1.9,0.9,3.2c0,2.1-0.9,3.8-2.7,5.1c-1.8,1.3-4,2-6.8,2s-5-0.6-6.8-1.9s-2.8-3.1-3-5.5h7
		c0.2,1.4,1.1,2,2.9,2c0.8,0,1.5-0.2,2-0.6s0.8-0.9,0.8-1.4c0-0.6-0.4-1.1-1.3-1.4c-0.9-0.3-1.9-0.6-3.1-0.9
		c-1.2-0.2-2.5-0.5-3.7-0.9c-1.2-0.4-2.3-1-3.2-1.9C317.3,255.5,316.9,254.3,316.9,252.8z"/>
	<path d="M339.1,252.8c0-2,0.8-3.6,2.5-5c1.7-1.3,4-2,6.8-2c2.9,0,5.2,0.7,6.9,2c1.8,1.3,2.7,3.1,2.8,5.4h-7
		c-0.1-0.8-0.3-1.3-0.8-1.6c-0.5-0.3-1.1-0.4-2-0.4c-1.8,0-2.7,0.5-2.7,1.6c0,1,1.1,1.7,3.3,2c2.2,0.4,4.2,0.9,6,1.7
		c0.9,0.4,1.7,1,2.3,1.9c0.6,0.9,0.9,1.9,0.9,3.2c0,2.1-0.9,3.8-2.7,5.1c-1.8,1.3-4,2-6.8,2c-2.7,0-5-0.6-6.8-1.9
		c-1.8-1.2-2.8-3.1-3-5.5h7c0.2,1.4,1.1,2,2.9,2c0.8,0,1.5-0.2,2-0.6s0.8-0.9,0.8-1.4c0-0.6-0.4-1.1-1.3-1.4
		c-0.9-0.3-1.9-0.6-3.1-0.9c-1.2-0.2-2.5-0.5-3.7-0.9c-1.2-0.4-2.3-1-3.2-1.9S339.1,254.3,339.1,252.8z"/>
</g>
<g>
	<path d="M98.7,293.9v3.5c1.5-2.6,3.8-3.8,7-3.8c1.7,0,3.2,0.4,4.6,1.2c1.3,0.8,2.3,2,3,3.5c0.8-1.5,1.8-2.6,3.2-3.4
		c1.4-0.8,2.9-1.2,4.7-1.2c2.5,0,4.6,0.8,6.2,2.5c1.6,1.6,2.4,4,2.4,6.9v13h-4.6v-12.3c0-2-0.5-3.5-1.5-4.5c-1-1.1-2.3-1.6-4-1.6
		s-3.1,0.5-4,1.6c-1,1.1-1.5,2.6-1.5,4.5v12.3h-4.5v-12.3c0-2-0.5-3.5-1.5-4.5c-1-1.1-2.3-1.6-4-1.6c-1.7,0-3.1,0.5-4.1,1.6
		c-1,1.1-1.5,2.6-1.5,4.5v12.3h-4.6v-22H98.7z"/>
	<path d="M145.3,316.3c-3.2,0-5.9-1-7.9-3.1c-2.1-2.1-3.1-4.8-3.1-8.2c0-3.4,1.1-6.1,3.2-8.2c2.1-2.1,4.8-3.1,8-3.1
		c3.2,0,5.9,1,8,3.1c2.1,2.1,3.2,4.8,3.2,8.2c0,3.4-1.1,6.1-3.3,8.2C151.2,315.3,148.5,316.3,145.3,316.3z M150,310.5
		c1.3-1.3,2-3.2,2-5.6c0-2.4-0.6-4.2-1.9-5.5c-1.3-1.3-2.9-2-4.7-2c-1.8,0-3.4,0.7-4.6,2c-1.3,1.3-1.9,3.2-1.9,5.6s0.6,4.2,1.8,5.6
		s2.8,2,4.6,2C147.1,312.5,148.7,311.8,150,310.5z"/>
	<path d="M158.6,293.9h4.9l6.2,18l6.2-18h4.9l-8.4,22H167L158.6,293.9z"/>
	<path d="M193.5,316.3c-3.2,0-5.8-1-7.8-3.1s-3-4.8-3-8.3s1-6.2,3-8.3c2-2.1,4.6-3.1,7.9-3.1s5.8,1,7.8,3s3,4.6,3,7.8
		c0,0.8-0.1,1.5-0.2,2.2h-16.9c0.1,1.8,0.7,3.3,1.9,4.4c1.1,1.1,2.6,1.6,4.3,1.6c2.5,0,4.2-1,5.2-3.1h4.9c-0.7,2-1.9,3.7-3.6,5
		C198.3,315.7,196.1,316.3,193.5,316.3z M197.9,299c-1.2-1.1-2.6-1.6-4.3-1.6c-1.7,0-3.1,0.5-4.2,1.6c-1.1,1.1-1.8,2.5-1.9,4.3h12.2
		C199.7,301.5,199.1,300.1,197.9,299z"/>
	<path d="M213.5,293.9v3.5c1.5-2.6,3.8-3.8,7-3.8c1.7,0,3.2,0.4,4.6,1.2c1.3,0.8,2.3,2,3,3.5c0.8-1.5,1.8-2.6,3.2-3.4
		c1.4-0.8,2.9-1.2,4.7-1.2c2.5,0,4.6,0.8,6.2,2.5c1.6,1.6,2.4,4,2.4,6.9v13h-4.6v-12.3c0-2-0.5-3.5-1.5-4.5c-1-1.1-2.3-1.6-4-1.6
		s-3.1,0.5-4,1.6c-1,1.1-1.5,2.6-1.5,4.5v12.3h-4.5v-12.3c0-2-0.5-3.5-1.5-4.5c-1-1.1-2.3-1.6-4-1.6c-1.7,0-3.1,0.5-4.1,1.6
		c-1,1.1-1.5,2.6-1.5,4.5v12.3h-4.6v-22H213.5z"/>
	<path d="M259.8,316.3c-3.2,0-5.8-1-7.8-3.1s-3-4.8-3-8.3s1-6.2,3-8.3c2-2.1,4.6-3.1,7.9-3.1c3.2,0,5.8,1,7.8,3s3,4.6,3,7.8
		c0,0.8-0.1,1.5-0.2,2.2h-16.9c0.1,1.8,0.7,3.3,1.9,4.4c1.1,1.1,2.6,1.6,4.3,1.6c2.5,0,4.2-1,5.2-3.1h4.9c-0.7,2-1.9,3.7-3.6,5
		C264.5,315.7,262.4,316.3,259.8,316.3z M264.1,299c-1.2-1.1-2.6-1.6-4.3-1.6c-1.7,0-3.1,0.5-4.2,1.6c-1.1,1.1-1.8,2.5-1.9,4.3h12.2
		C265.9,301.5,265.3,300.1,264.1,299z"/>
	<path d="M279.7,293.9v3.5c1.5-2.6,3.8-3.8,7-3.8c2.5,0,4.5,0.8,6.1,2.5c1.6,1.7,2.4,4,2.4,6.9v13h-4.5v-12.3c0-2-0.5-3.5-1.5-4.5
		c-1-1.1-2.3-1.6-4-1.6c-1.7,0-3.1,0.5-4.1,1.6c-1,1.1-1.5,2.6-1.5,4.5v12.3h-4.6v-22H279.7z"/>
	<path d="M311.8,297.6h-5.4v12.2c0,0.8,0.2,1.4,0.6,1.8c0.4,0.4,1,0.5,2,0.5h2.8v3.8h-3.6c-4.2,0-6.4-2-6.4-6.1v-12.2h-2.6v-3.7h2.6
		v-5.5h4.6v5.5h5.4V297.6z"/>
</g>
<g>
	<path d="M278.7,171.5l-3-5.2c-20.4,11.8-45.3,11.3-65.2-1.1c0-2.8,0.6-8.3,1.1-9.9c9.4,6.9,20.9,10.7,32.6,10.7
		c4.8,0,9.6-0.6,14.3-1.9l-1.6-5.8c-15.1,4.1-31.5,0.6-43.5-9.2c1-3,2.1-5.9,3.3-8.8c7.6,7.2,17.4,11,27.4,11c6.8,0,13.7-1.8,20-5.4
		l-3-5.2c-7.8,4.5-16.8,5.4-25.1,3.4c20.3-12.7,32.7-35.1,32.7-59.1h-6c0,24-13,45.4-34,56.4c-2.9-1.5-5.6-3.3-8-5.7
		c15.5-6.6,27.2-19.9,31.5-36.4l-5.8-1.5c-3.6,13.7-12.8,25-25.3,31.2c1.3-3.8,2.3-8,2.8-12.3C233.3,109.1,239,98,239,85h-6
		c0,9-3.3,17.1-9.1,23.3c-0.1-2.3-0.4-4.6-0.9-7.1c-4.1-21.4-16.5-39.3-33.8-49.3l-3,5.2c15.9,9.2,27.1,25.7,30.9,45.3
		c2.7,13.8-1.4,23.9-5.6,34.5c-2.8,7-5.7,14.3-6.8,22.8c-1.9,15.5,5.8,30.6,19.6,38.6l3-5.2c-7.8-4.5-13.4-12-15.7-20.3
		c10.1,5.4,21.3,8.1,32.4,8.1C256,180.9,267.9,177.8,278.7,171.5z"/>
	<path d="M181.4,172.8c-2.7-13.8,1.4-23.9,5.6-34.5c2.8-7,5.7-14.3,6.8-22.8c1.9-15.5-5.8-30.6-19.6-38.6l-3,5.2
		c7.6,4.4,13.1,11.6,15.5,19.8c-21-11.1-46.3-10.8-67.1,1.3l3,5.2C143,96.6,168,97,188,109.5c0.6,1.7,0.3,5.6-1,10
		c-13.4-10-31-13.4-47.2-8.9l1.6,5.8c15.2-4.2,31.8-0.5,43.9,9.5c-1,3-2.1,6-3.3,8.8c-12.6-12.3-32.2-14.8-47.7-5.9l3,5.2
		c7.7-4.5,16.7-5.7,25-3.7c-20.3,12.6-32.6,34.8-32.6,58.8h6c0-23,13-45,33.9-56c2.9,1.5,5.7,3.5,8.1,5.9
		c-15.5,6.6-27.2,20.1-31.5,36.5l5.8,1.5c3.6-13.8,13.1-25.2,25.8-31.4c-1.3,3.9-2.4,7.7-2.9,12.1c-9.7,6.8-15.7,18.5-15.7,31.5h6
		c0-9,3.5-17.4,9.3-23.3c0.1,2.6,0.4,5.3,0.9,8.2c4.1,21.4,16.5,39.4,33.8,49.4l3-5.2C196.5,209,185.2,192.5,181.4,172.8z"/>
	<path d="M208.8,108.9c0-18.5-15.4-35.5-16-36.2l-4.4,4.1c0.1,0.2,14.5,16,14.5,32.1c0,10.1-3.2,18-6.5,26.4
		c-3.4,8.4-6.8,17-6.8,27.8c0,22.4,15.5,38.4,16.2,39l4.3-4.2c-0.1-0.1-14.5-14.9-14.5-34.8c0-9.6,3.1-17.3,6.4-25.5
		C205.2,128.9,208.8,120.1,208.8,108.9z"/>
</g>
</svg>
