<?xml version="1.0" encoding="utf-8"?>
<!-- Generator: Adobe Illustrator 16.0.0, SVG Export Plug-In . SVG Version: 6.00 Build 0)  -->
<!DOCTYPE svg PUBLIC "-//W3C//DTD SVG 1.1//EN" "http://www.w3.org/Graphics/SVG/1.1/DTD/svg11.dtd">
<svg version="1.1" id="Livello_1" xmlns="http://www.w3.org/2000/svg" xmlns:xlink="http://www.w3.org/1999/xlink" x="0px" y="0px"
	 width="600px" height="250px" viewBox="0 0 600 250" style="enable-background:new 0 0 600 250;" xml:space="preserve">
<style type="text/css">
<![CDATA[
	.st0{opacity:0.298;}
	.st1{fill:#ADFEC9;}
	.st2{fill:#242A53;}
	.st3{fill:#245B62;}
	.st4{fill:#FF00FF;}
	.st5{fill:#FFFFFF;}
	.st6{fill:none;stroke:#FF00FF;stroke-width:6;stroke-miterlimit:10;}
	.st7{fill:#63CB9D;}
	.st8{fill:#010101;}
	.st9{fill:none;stroke:#000000;stroke-width:6;stroke-miterlimit:10;}
]]>
</style>
<rect x="-32" y="-24" width="700" height="312"/>
<g>
	<path class="st5" d="M226.1,110.6V82.5h18.3v5.2h-11.4v6h8.6V99h-8.6v11.6H226.1z"/>
	<path class="st5" d="M255.1,88.3v4.2c1.6-2.9,3.7-4.4,6.4-4.4v7h-1.7c-1.6,0-2.8,0.4-3.5,1.1s-1.2,2.1-1.2,3.9v10.6h-6.8V88.3
		H255.1z"/>
	<path class="st5" d="M266.5,107.7c-2-2.1-3-4.9-3-8.2c0-3.3,1-6.1,3-8.2s4.4-3.2,7.2-3.2c2.8,0,5,1.1,6.5,3.2v-2.9h6.8v22.3h-6.8
		v-3.2c-1.7,2.3-3.9,3.5-6.6,3.5S268.5,109.8,266.5,107.7z M278.8,103.5c1-1,1.5-2.3,1.5-4.1s-0.5-3.1-1.5-4.1
		c-1-0.9-2.1-1.4-3.4-1.4c-1.3,0-2.4,0.5-3.4,1.4c-1,1-1.5,2.3-1.5,4.1s0.5,3.1,1.5,4.1c1,0.9,2.1,1.4,3.4,1.4
		C276.7,105,277.8,104.5,278.8,103.5z"/>
	<path class="st5" d="M298.4,88.3v3.3c1.4-2.3,3.7-3.5,6.8-3.5c1.7,0,3.1,0.4,4.4,1.1c1.3,0.7,2.3,1.8,3,3.2
		c0.8-1.3,1.9-2.4,3.2-3.1c1.3-0.8,2.8-1.2,4.4-1.2c2.7,0,4.9,0.8,6.5,2.5c1.6,1.7,2.4,4,2.4,7v13h-6.8V98.5c0-1.4-0.4-2.6-1.1-3.3
		c-0.8-0.8-1.8-1.2-3.1-1.2c-1.3,0-2.4,0.4-3.1,1.2c-0.8,0.8-1.1,1.9-1.1,3.3v12.1h-6.8V98.5c0-1.4-0.4-2.6-1.1-3.3
		c-0.8-0.8-1.8-1.2-3.1-1.2c-1.3,0-2.4,0.4-3.1,1.2c-0.8,0.8-1.1,1.9-1.1,3.3v12.1h-6.8V88.3H298.4z"/>
	<path class="st5" d="M343.6,110.9c-3.3,0-5.9-1-8-3.1c-2.1-2.1-3.1-4.9-3.1-8.3c0-3.5,1-6.2,3.1-8.3c2.1-2.1,4.7-3.1,8-3.1
		s6,1,8.2,3c2.2,2,3.2,4.8,3.2,8.4c0,0.8-0.1,1.5-0.2,2.2h-15.4c0.1,1,0.6,1.8,1.3,2.4c0.7,0.6,1.6,0.9,2.4,0.9
		c0.9,0,1.5-0.1,1.9-0.3c0.4-0.2,0.7-0.3,0.9-0.5s0.5-0.5,0.8-0.9h7.4c-0.6,2.2-1.9,4-3.8,5.4C348.5,110.2,346.2,110.9,343.6,110.9z
		 M346.5,94.9c-0.8-0.7-1.7-1-2.8-1c-1.1,0-2,0.3-2.8,1c-0.7,0.7-1.2,1.5-1.4,2.5h8.4C347.8,96.4,347.3,95.5,346.5,94.9z"/>
	<path class="st5" d="M384.5,88.3h6.4l-6.7,22.3h-7.4l-3.1-13.2l-3.2,13.2h-7.4l-6.7-22.3h6.8l3.5,15.7l3.4-15.7h7.2L381,104
		L384.5,88.3z"/>
	<path class="st5" d="M395.8,107.7c-2.3-2.1-3.4-4.9-3.4-8.3c0-3.4,1.1-6.2,3.4-8.3c2.2-2.1,5-3.1,8.3-3.1s6.1,1,8.3,3.1
		s3.3,4.8,3.3,8.3c0,3.4-1.1,6.2-3.3,8.3c-2.2,2.1-5,3.2-8.3,3.2S398.1,109.8,395.8,107.7z M407.4,103.6c0.9-1,1.4-2.3,1.4-4.2
		s-0.5-3.2-1.4-4.1c-0.9-0.9-2-1.4-3.3-1.4s-2.4,0.5-3.3,1.4c-0.9,0.9-1.4,2.3-1.4,4.1s0.5,3.2,1.4,4.2c0.9,1,2.1,1.4,3.3,1.4
		S406.5,104.6,407.4,103.6z"/>
	<path class="st5" d="M427,88.3v4.2c1.6-2.9,3.7-4.4,6.4-4.4v7h-1.7c-1.6,0-2.8,0.4-3.5,1.1c-0.8,0.7-1.2,2.1-1.2,3.9v10.6h-6.8
		V88.3H427z"/>
	<path class="st5" d="M443.9,110.6h-6.8V81h6.8v16.6l6.9-9.3h9.2l-9.6,11.4l9.6,10.9H451l-7-8.9V110.6z"/>
	<path class="st5" d="M462.4,110.6V81h6.8v29.6H462.4z"/>
	<path class="st5" d="M483.1,110.9c-3.3,0-5.9-1-8-3.1c-2.1-2.1-3.1-4.9-3.1-8.3c0-3.5,1-6.2,3.1-8.3c2.1-2.1,4.7-3.1,8-3.1
		c3.3,0,6,1,8.2,3c2.2,2,3.2,4.8,3.2,8.4c0,0.8-0.1,1.5-0.2,2.2H479c0.1,1,0.6,1.8,1.3,2.4c0.7,0.6,1.6,0.9,2.4,0.9
		c0.9,0,1.5-0.1,1.9-0.3s0.7-0.3,0.9-0.5s0.5-0.5,0.8-0.9h7.4c-0.6,2.2-1.9,4-3.8,5.4C488.1,110.2,485.8,110.9,483.1,110.9z
		 M486.1,94.9c-0.8-0.7-1.7-1-2.8-1c-1.1,0-2,0.3-2.8,1c-0.7,0.7-1.2,1.5-1.4,2.5h8.4C487.3,96.4,486.9,95.5,486.1,94.9z"/>
	<path class="st5" d="M497.4,95c0-2,0.8-3.6,2.5-5c1.7-1.3,4-2,6.8-2s5.2,0.7,6.9,2s2.7,3.1,2.8,5.4h-7c-0.1-0.8-0.3-1.3-0.8-1.6
		c-0.5-0.3-1.1-0.4-2-0.4c-1.8,0-2.7,0.5-2.7,1.6c0,1,1.1,1.7,3.3,2c2.2,0.4,4.2,0.9,6,1.7c0.9,0.4,1.7,1,2.3,1.9
		c0.6,0.9,0.9,1.9,0.9,3.2c0,2.1-0.9,3.8-2.7,5.1c-1.8,1.3-4,2-6.8,2c-2.7,0-5-0.6-6.8-1.9s-2.8-3.1-3-5.5h7c0.2,1.4,1.1,2,2.9,2
		c0.8,0,1.5-0.2,2-0.6c0.5-0.4,0.8-0.9,0.8-1.4c0-0.6-0.4-1.1-1.3-1.4c-0.9-0.3-1.9-0.6-3.1-0.9s-2.5-0.5-3.7-0.9
		c-1.2-0.4-2.3-1-3.2-1.9C497.9,97.6,497.4,96.4,497.4,95z"/>
	<path class="st5" d="M519.6,95c0-2,0.8-3.6,2.5-5c1.7-1.3,4-2,6.8-2c2.9,0,5.2,0.7,6.9,2c1.8,1.3,2.7,3.1,2.8,5.4h-7
		c-0.1-0.8-0.3-1.3-0.8-1.6s-1.1-0.4-2-0.4c-1.8,0-2.7,0.5-2.7,1.6c0,1,1.1,1.7,3.3,2c2.2,0.4,4.2,0.9,6,1.7c0.9,0.4,1.7,1,2.3,1.9
		c0.6,0.9,0.9,1.9,0.9,3.2c0,2.1-0.9,3.8-2.7,5.1c-1.8,1.3-4,2-6.8,2s-5-0.6-6.8-1.9c-1.8-1.2-2.8-3.1-3-5.5h7c0.2,1.4,1.1,2,2.9,2
		c0.8,0,1.5-0.2,2-0.6c0.5-0.4,0.8-0.9,0.8-1.4c0-0.6-0.4-1.1-1.3-1.4c-0.9-0.3-1.9-0.6-3.1-0.9c-1.2-0.2-2.5-0.5-3.7-0.9
		s-2.3-1-3.2-1.9C520.1,97.6,519.6,96.4,519.6,95z"/>
</g>
<g>
	<path class="st5" d="M231.6,129.1v3.5c1.5-2.6,3.8-3.8,7-3.8c1.7,0,3.2,0.4,4.6,1.2c1.3,0.8,2.3,2,3,3.5c0.8-1.5,1.8-2.6,3.2-3.4
		c1.4-0.8,2.9-1.2,4.7-1.2c2.5,0,4.6,0.8,6.2,2.5c1.6,1.6,2.4,4,2.4,6.9v13h-4.6v-12.3c0-2-0.5-3.5-1.5-4.5s-2.3-1.6-4-1.6
		c-1.7,0-3.1,0.5-4,1.6s-1.5,2.6-1.5,4.5v12.3h-4.5v-12.3c0-2-0.5-3.5-1.5-4.5c-1-1.1-2.3-1.6-4-1.6c-1.7,0-3.1,0.5-4.1,1.6
		s-1.5,2.6-1.5,4.5v12.3H227v-22H231.6z"/>
	<path class="st5" d="M278.1,151.5c-3.2,0-5.9-1-7.9-3.1c-2.1-2.1-3.1-4.8-3.1-8.2s1.1-6.1,3.2-8.2c2.1-2.1,4.8-3.1,8-3.1
		c3.2,0,5.9,1,8,3.1c2.1,2.1,3.2,4.8,3.2,8.2s-1.1,6.1-3.3,8.2C284.1,150.4,281.3,151.5,278.1,151.5z M282.9,145.6
		c1.3-1.3,2-3.2,2-5.6s-0.6-4.2-1.9-5.5c-1.3-1.3-2.9-2-4.7-2c-1.8,0-3.4,0.7-4.6,2c-1.3,1.3-1.9,3.2-1.9,5.6s0.6,4.2,1.8,5.6
		s2.8,2,4.6,2C280,147.6,281.5,146.9,282.9,145.6z"/>
	<path class="st5" d="M291.5,129.1h4.9l6.2,18l6.2-18h4.9l-8.4,22h-5.5L291.5,129.1z"/>
	<path class="st5" d="M326.4,151.5c-3.2,0-5.8-1-7.8-3.1s-3-4.8-3-8.3c0-3.4,1-6.2,3-8.3c2-2.1,4.6-3.1,7.9-3.1c3.2,0,5.8,1,7.8,3
		s3,4.6,3,7.8c0,0.8-0.1,1.5-0.2,2.2h-16.9c0.1,1.8,0.7,3.3,1.9,4.4c1.1,1.1,2.6,1.6,4.3,1.6c2.5,0,4.2-1,5.2-3.1h4.9
		c-0.7,2-1.9,3.7-3.6,5C331.2,150.8,329,151.5,326.4,151.5z M330.8,134.2c-1.2-1.1-2.6-1.6-4.3-1.6s-3.1,0.5-4.2,1.6
		c-1.1,1.1-1.8,2.5-1.9,4.3h12.2C332.5,136.7,331.9,135.2,330.8,134.2z"/>
	<path class="st5" d="M346.4,129.1v3.5c1.5-2.6,3.8-3.8,7-3.8c1.7,0,3.2,0.4,4.6,1.2c1.3,0.8,2.3,2,3,3.5c0.8-1.5,1.8-2.6,3.2-3.4
		c1.4-0.8,2.9-1.2,4.7-1.2c2.5,0,4.6,0.8,6.2,2.5c1.6,1.6,2.4,4,2.4,6.9v13H373v-12.3c0-2-0.5-3.5-1.5-4.5c-1-1.1-2.3-1.6-4-1.6
		c-1.7,0-3.1,0.5-4,1.6c-1,1.1-1.5,2.6-1.5,4.5v12.3h-4.5v-12.3c0-2-0.5-3.5-1.5-4.5c-1-1.1-2.3-1.6-4-1.6c-1.7,0-3.1,0.5-4.1,1.6
		s-1.5,2.6-1.5,4.5v12.3h-4.6v-22H346.4z"/>
	<path class="st5" d="M392.6,151.5c-3.2,0-5.8-1-7.8-3.1s-3-4.8-3-8.3c0-3.4,1-6.2,3-8.3c2-2.1,4.6-3.1,7.9-3.1s5.8,1,7.8,3
		s3,4.6,3,7.8c0,0.8-0.1,1.5-0.2,2.2h-16.9c0.1,1.8,0.7,3.3,1.9,4.4c1.1,1.1,2.6,1.6,4.3,1.6c2.5,0,4.2-1,5.2-3.1h4.9
		c-0.7,2-1.9,3.7-3.6,5C397.4,150.8,395.2,151.5,392.6,151.5z M397,134.2c-1.2-1.1-2.6-1.6-4.3-1.6s-3.1,0.5-4.2,1.6
		c-1.1,1.1-1.8,2.5-1.9,4.3h12.2C398.8,136.7,398.2,135.2,397,134.2z"/>
	<path class="st5" d="M412.6,129.1v3.5c1.5-2.6,3.8-3.8,7-3.8c2.5,0,4.5,0.8,6.1,2.5c1.6,1.7,2.4,4,2.4,6.9v13h-4.5v-12.3
		c0-2-0.5-3.5-1.5-4.5s-2.3-1.6-4-1.6c-1.7,0-3.1,0.5-4.1,1.6s-1.5,2.6-1.5,4.5v12.3H408v-22H412.6z"/>
	<path class="st5" d="M444.7,132.8h-5.4V145c0,0.8,0.2,1.4,0.6,1.8s1,0.5,2,0.5h2.8v3.8h-3.6c-4.2,0-6.4-2-6.4-6.1v-12.2h-2.6v-3.7
		h2.6v-5.5h4.6v5.5h5.4V132.8z"/>
</g>
<g>
	<path class="st5" d="M207,155.9l-3-5.2c-20.4,11.8-45.3,11.3-65.2-1.1c0-2.8,0.6-8.3,1.1-9.9c9.4,6.9,20.9,10.7,32.6,10.7
		c4.8,0,9.6-0.6,14.3-1.9l-1.6-5.8c-15.1,4.1-31.5,0.6-43.5-9.2c1-3,2.1-5.9,3.3-8.8c7.6,7.2,17.4,11,27.4,11c6.8,0,13.7-1.8,20-5.4
		l-3-5.2c-7.8,4.5-16.8,5.3-25.1,3.2c20.3-12.7,32.7-35.3,32.7-59.3h-6c0,24-13,45.6-34,56.6c-2.9-1.5-5.6-3.3-8-5.6
		c15.5-6.6,27.2-19.9,31.5-36.4l-5.8-1.5c-3.6,13.7-12.8,25-25.3,31.2c1.3-3.8,2.3-8.2,2.8-12.5c9.6-7.5,15.3-18.8,15.3-31.8h-6
		c0,9-3.3,17.3-9.1,23.5c-0.1-2.3-0.4-4.5-0.9-7c-4.1-21.4-16.5-39.3-33.8-49.3l-3,5.2c15.9,9.2,27.1,25.7,30.9,45.3
		c2.7,13.8-1.4,23.9-5.6,34.5c-2.8,7-5.7,14.3-6.8,22.8c-1.9,15.5,5.8,30.6,19.6,38.6l3-5.2c-7.8-4.5-13.4-12-15.7-20.3
		c10.1,5.4,21.3,8.1,32.4,8.1C184.2,165.2,196.2,162.1,207,155.9z"/>
	<path class="st5" d="M109.7,157.2c-2.7-13.8,1.4-23.9,5.6-34.5c2.8-7,5.7-14.3,6.8-22.8c1.9-15.5-5.8-30.6-19.6-38.6l-3,5.2
		c7.6,4.4,13.1,11.6,15.5,19.8c-21-11.1-46.3-10.8-67.1,1.3l3,5.2c20.4-11.8,45.5-11.3,65.4,1.2c0.6,1.7,0.3,5.6-1,10
		c-13.4-10-31-13.4-47.2-8.9l1.6,5.8c15.2-4.2,31.8-0.5,43.9,9.5c-1,3-2.1,6-3.3,8.8c-12.6-12.3-32.2-14.8-47.7-5.9l3,5.2
		c7.7-4.5,16.7-5.9,25-3.9C70.3,127,58,149,58,173h6c0-23,13-44.8,33.9-55.9c2.9,1.5,5.7,3.6,8.1,5.9c-15.5,6.6-27.2,20.1-31.5,36.5
		l5.8,1.6c3.6-13.8,13.1-25.2,25.8-31.4c-1.3,3.9-2.4,7.6-2.9,11.9c-9.7,6.8-15.7,18.3-15.7,31.3h6c0-9,3.5-17.2,9.3-23.1
		c0.1,2.6,0.4,5.4,0.9,8.2c4.1,21.4,16.5,39.4,33.8,49.5l3-5.2C124.7,193.3,113.5,176.8,109.7,157.2z"/>
	<path class="st5" d="M137.1,93.2c0-18.5-15.4-35.5-16-36.2l-4.4,4.1c0.1,0.2,14.5,16,14.5,32.1c0,10.1-3.2,18-6.5,26.4
		c-3.4,8.4-6.8,17-6.8,27.8c0,22.4,15.5,38.4,16.2,39l4.3-4.2c-0.1-0.1-14.5-14.9-14.5-34.8c0-9.6,3.1-17.3,6.4-25.5
		C133.5,113.3,137.1,104.4,137.1,93.2z"/>
</g>
</svg>
