<?xml version="1.0" encoding="utf-8"?>
<!-- Generator: Adobe Illustrator 16.0.0, SVG Export Plug-In . SVG Version: 6.00 Build 0)  -->
<!DOCTYPE svg PUBLIC "-//W3C//DTD SVG 1.1//EN" "http://www.w3.org/Graphics/SVG/1.1/DTD/svg11.dtd">
<svg version="1.1" id="Livello_1" xmlns="http://www.w3.org/2000/svg" xmlns:xlink="http://www.w3.org/1999/xlink" x="0px" y="0px"
	 width="240px" height="240px" viewBox="0 0 240 240" style="enable-background:new 0 0 240 240;" xml:space="preserve">
<style type="text/css">
<![CDATA[
	.st0{opacity:0.298;}
	.st1{fill:#ADFEC9;}
	.st2{fill:#242A53;}
	.st3{fill:#245B62;}
	.st4{fill:#FF00FF;}
	.st5{fill:#FFFFFF;}
	.st6{fill:none;stroke:#FF00FF;stroke-width:6;stroke-miterlimit:10;}
	.st7{fill:#63CB9D;}
	.st8{fill:#010101;}
	.st9{fill:none;stroke:#000000;stroke-width:6;stroke-miterlimit:10;}
]]>
</style>
<rect x="-32" y="-23" class="st3" width="314" height="312"/>
<g>
	<path class="st1" d="M200,154l-3-5.2c-20.4,11.8-45.3,11.3-65.2-1.1c0-2.8,0.6-8.3,1.1-9.9c9.4,6.9,20.9,10.7,32.6,10.7
		c4.8,0,9.6-0.6,14.3-1.9l-1.6-5.8c-15.1,4.1-31.5,0.6-43.5-9.2c1-3,2.1-5.9,3.3-8.8c7.6,7.2,17.4,11,27.4,11c6.8,0,13.7-1.8,20-5.4
		l-3-5.2c-7.8,4.5-16.8,5.2-25.1,3.2c20.3-12.7,32.7-35.4,32.7-59.4h-6c0,24-13,45.6-34,56.6c-2.9-1.5-5.6-3.2-8-5.6
		c15.5-6.6,27.2-19.9,31.5-36.3l-5.8-1.5c-3.6,13.7-12.8,25-25.3,31.2c1.3-3.8,2.3-8.2,2.8-12.5c9.6-7.5,15.3-18.9,15.3-31.9h-6
		c0,9-3.3,17.3-9.1,23.5c-0.1-2.3-0.4-4.5-0.9-7c-4.1-21.4-16.5-39.3-33.8-49.3l-3,5.2c15.9,9.2,27.1,25.7,30.9,45.3
		c2.7,13.8-1.4,23.9-5.6,34.5c-2.8,7-5.7,14.3-6.8,22.8c-1.9,15.5,5.8,30.6,19.6,38.6l3-5.2c-7.8-4.5-13.4-12-15.7-20.3
		c10.1,5.4,21.3,8.1,32.4,8.1C177.3,163.3,189.2,160.2,200,154z"/>
	<path class="st1" d="M102.7,155.3c-2.7-13.8,1.4-23.9,5.6-34.5c2.8-7,5.7-14.3,6.8-22.8c1.9-15.5-5.8-30.6-19.6-38.6l-3,5.2
		c7.6,4.4,13.1,11.6,15.5,19.8c-21-11.1-46.3-10.8-67.1,1.3l3,5.2C64.3,79,89.3,79.5,109.3,92c0.6,1.7,0.3,5.6-1,10
		c-13.4-10-31-13.4-47.2-8.9l1.6,5.8c15.2-4.2,31.8-0.5,43.9,9.5c-1,3-2.1,6-3.3,8.8c-12.6-12.3-32.2-14.8-47.7-5.9l3,5.2
		c7.7-4.5,16.7-5.9,25-3.9C63.4,125,51,147,51,171h6c0-23,13-44.8,33.9-55.8c2.9,1.5,5.7,3.6,8.1,6c-15.5,6.6-27.2,20.1-31.5,36.5
		l5.8,1.6c3.6-13.8,13.1-25.2,25.8-31.4c-1.3,3.9-2.4,7.5-2.9,11.8c-9.7,6.8-15.7,18.3-15.7,31.3h6c0-9,3.5-17.2,9.3-23.1
		c0.1,2.6,0.4,5.4,0.9,8.3c4.1,21.4,16.5,39.5,33.8,49.5l3-5.1C117.8,191.4,106.5,174.9,102.7,155.3z"/>
	<path class="st1" d="M130.1,91.3c0-18.5-15.4-35.5-16-36.2l-4.4,4.1c0.1,0.2,14.5,16,14.5,32.1c0,10.1-3.2,18-6.5,26.4
		c-3.4,8.4-6.8,17-6.8,27.8c0,22.4,15.5,38.4,16.2,39l4.3-4.2c-0.1-0.1-14.5-14.9-14.5-34.8c0-9.6,3.1-17.3,6.4-25.5
		C126.6,111.4,130.1,102.5,130.1,91.3z"/>
</g>
</svg>
