<?xml version="1.0" encoding="utf-8"?>
<!-- Generator: Adobe Illustrator 16.0.0, SVG Export Plug-In . SVG Version: 6.00 Build 0)  -->
<!DOCTYPE svg PUBLIC "-//W3C//DTD SVG 1.1//EN" "http://www.w3.org/Graphics/SVG/1.1/DTD/svg11.dtd">
<svg version="1.1" id="Livello_1" xmlns="http://www.w3.org/2000/svg" xmlns:xlink="http://www.w3.org/1999/xlink" x="0px" y="0px"
	 width="600px" height="250px" viewBox="0 0 600 250" style="enable-background:new 0 0 600 250;" xml:space="preserve">
<style type="text/css">
<![CDATA[
	.st0{opacity:0.298;}
	.st1{fill:#ADFEC9;}
	.st2{fill:#242A53;}
	.st3{fill:#245B62;}
	.st4{fill:#FF00FF;}
	.st5{fill:#FFFFFF;}
	.st6{fill:none;stroke:#FF00FF;stroke-width:6;stroke-miterlimit:10;}
	.st7{fill:#63CB9D;}
	.st8{fill:#010101;}
	.st9{fill:none;stroke:#000000;stroke-width:6;stroke-miterlimit:10;}
]]>
</style>
<g>
	<path class="st3" d="M225.3,111.1V83h18.3v5.2h-11.4v6h8.6v5.2h-8.6v11.6H225.3z"/>
	<path class="st3" d="M254.4,88.7v4.2c1.6-2.9,3.7-4.4,6.4-4.4v7h-1.7c-1.6,0-2.8,0.4-3.5,1.1s-1.2,2.1-1.2,3.9v10.6h-6.8V88.7
		H254.4z"/>
	<path class="st3" d="M265.8,108.1c-2-2.1-3-4.9-3-8.2c0-3.3,1-6.1,3-8.2s4.4-3.2,7.2-3.2c2.8,0,5,1.1,6.5,3.2v-2.9h6.8v22.3h-6.8
		v-3.2c-1.7,2.3-3.9,3.5-6.6,3.5S267.8,110.3,265.8,108.1z M278.1,104c1-1,1.5-2.3,1.5-4.1s-0.5-3.1-1.5-4.1c-1-0.9-2.1-1.4-3.4-1.4
		c-1.3,0-2.4,0.5-3.4,1.4c-1,1-1.5,2.3-1.5,4.1s0.5,3.1,1.5,4.1c1,0.9,2.1,1.4,3.4,1.4C276,105.4,277.1,104.9,278.1,104z"/>
	<path class="st3" d="M297.6,88.7V92c1.4-2.3,3.7-3.5,6.8-3.5c1.7,0,3.1,0.4,4.4,1.1c1.3,0.7,2.3,1.8,3,3.2c0.8-1.3,1.9-2.4,3.2-3.1
		c1.3-0.8,2.8-1.2,4.4-1.2c2.7,0,4.9,0.8,6.5,2.5c1.6,1.7,2.4,4,2.4,7v13h-6.8V98.9c0-1.4-0.4-2.6-1.1-3.3c-0.8-0.8-1.8-1.2-3.1-1.2
		c-1.3,0-2.4,0.4-3.1,1.2c-0.8,0.8-1.1,1.9-1.1,3.3v12.1h-6.8V98.9c0-1.4-0.4-2.6-1.1-3.3c-0.8-0.8-1.8-1.2-3.1-1.2
		c-1.3,0-2.4,0.4-3.1,1.2c-0.8,0.8-1.1,1.9-1.1,3.3v12.1h-6.8V88.7H297.6z"/>
	<path class="st3" d="M342.8,111.3c-3.3,0-5.9-1-8-3.1c-2.1-2.1-3.1-4.9-3.1-8.3c0-3.5,1-6.2,3.1-8.3c2.1-2.1,4.7-3.1,8-3.1
		s6,1,8.2,3c2.2,2,3.2,4.8,3.2,8.4c0,0.8-0.1,1.5-0.2,2.2h-15.4c0.1,1,0.6,1.8,1.3,2.4c0.7,0.6,1.6,0.9,2.4,0.9
		c0.9,0,1.5-0.1,1.9-0.3c0.4-0.2,0.7-0.3,0.9-0.5s0.5-0.5,0.8-0.9h7.4c-0.6,2.2-1.9,4-3.8,5.4C347.8,110.7,345.5,111.3,342.8,111.3z
		 M345.8,95.3c-0.8-0.7-1.7-1-2.8-1c-1.1,0-2,0.3-2.8,1c-0.7,0.7-1.2,1.5-1.4,2.5h8.4C347,96.8,346.6,96,345.8,95.3z"/>
	<path class="st3" d="M383.7,88.7h6.4l-6.7,22.3h-7.4L373,97.9l-3.2,13.2h-7.4l-6.7-22.3h6.8l3.5,15.7l3.4-15.7h7.2l3.4,15.7
		L383.7,88.7z"/>
	<path class="st3" d="M395.1,108.2c-2.3-2.1-3.4-4.9-3.4-8.3c0-3.4,1.1-6.2,3.4-8.3c2.2-2.1,5-3.1,8.3-3.1s6.1,1,8.3,3.1
		s3.3,4.8,3.3,8.3c0,3.4-1.1,6.2-3.3,8.3c-2.2,2.1-5,3.2-8.3,3.2S397.3,110.3,395.1,108.2z M406.7,104.1c0.9-1,1.4-2.3,1.4-4.2
		s-0.5-3.2-1.4-4.1c-0.9-0.9-2-1.4-3.3-1.4s-2.4,0.5-3.3,1.4c-0.9,0.9-1.4,2.3-1.4,4.1s0.5,3.2,1.4,4.2c0.9,1,2.1,1.4,3.3,1.4
		S405.8,105,406.7,104.1z"/>
	<path class="st3" d="M426.2,88.7v4.2c1.6-2.9,3.7-4.4,6.4-4.4v7H431c-1.6,0-2.8,0.4-3.5,1.1c-0.8,0.7-1.2,2.1-1.2,3.9v10.6h-6.8
		V88.7H426.2z"/>
	<path class="st3" d="M443.2,111.1h-6.8V81.5h6.8v16.6l6.9-9.3h9.2l-9.6,11.4l9.6,10.9h-9.1l-7-8.9V111.1z"/>
	<path class="st3" d="M461.7,111.1V81.5h6.8v29.6H461.7z"/>
	<path class="st3" d="M482.4,111.3c-3.3,0-5.9-1-8-3.1c-2.1-2.1-3.1-4.9-3.1-8.3c0-3.5,1-6.2,3.1-8.3c2.1-2.1,4.7-3.1,8-3.1
		c3.3,0,6,1,8.2,3c2.2,2,3.2,4.8,3.2,8.4c0,0.8-0.1,1.5-0.2,2.2h-15.4c0.1,1,0.6,1.8,1.3,2.4c0.7,0.6,1.6,0.9,2.4,0.9
		c0.9,0,1.5-0.1,1.9-0.3s0.7-0.3,0.9-0.5s0.5-0.5,0.8-0.9h7.4c-0.6,2.2-1.9,4-3.8,5.4C487.3,110.7,485,111.3,482.4,111.3z
		 M485.3,95.3c-0.8-0.7-1.7-1-2.8-1c-1.1,0-2,0.3-2.8,1c-0.7,0.7-1.2,1.5-1.4,2.5h8.4C486.6,96.8,486.1,96,485.3,95.3z"/>
	<path class="st3" d="M496.7,95.5c0-2,0.8-3.6,2.5-5c1.7-1.3,4-2,6.8-2s5.2,0.7,6.9,2s2.7,3.1,2.8,5.4h-7c-0.1-0.8-0.3-1.3-0.8-1.6
		c-0.5-0.3-1.1-0.4-2-0.4c-1.8,0-2.7,0.5-2.7,1.6c0,1,1.1,1.7,3.3,2c2.2,0.4,4.2,0.9,6,1.7c0.9,0.4,1.7,1,2.3,1.9
		c0.6,0.9,0.9,1.9,0.9,3.2c0,2.1-0.9,3.8-2.7,5.1c-1.8,1.3-4,2-6.8,2c-2.7,0-5-0.6-6.8-1.9s-2.8-3.1-3-5.5h7c0.2,1.4,1.1,2,2.9,2
		c0.8,0,1.5-0.2,2-0.6c0.5-0.4,0.8-0.9,0.8-1.4c0-0.6-0.4-1.1-1.3-1.4c-0.9-0.3-1.9-0.6-3.1-0.9s-2.5-0.5-3.7-0.9
		c-1.2-0.4-2.3-1-3.2-1.9C497.1,98.1,496.7,96.9,496.7,95.5z"/>
	<path class="st3" d="M518.9,95.5c0-2,0.8-3.6,2.5-5c1.7-1.3,4-2,6.8-2c2.9,0,5.2,0.7,6.9,2c1.8,1.3,2.7,3.1,2.8,5.4h-7
		c-0.1-0.8-0.3-1.3-0.8-1.6s-1.1-0.4-2-0.4c-1.8,0-2.7,0.5-2.7,1.6c0,1,1.1,1.7,3.3,2c2.2,0.4,4.2,0.9,6,1.7c0.9,0.4,1.7,1,2.3,1.9
		c0.6,0.9,0.9,1.9,0.9,3.2c0,2.1-0.9,3.8-2.7,5.1c-1.8,1.3-4,2-6.8,2s-5-0.6-6.8-1.9c-1.8-1.2-2.8-3.1-3-5.5h7c0.2,1.4,1.1,2,2.9,2
		c0.8,0,1.5-0.2,2-0.6c0.5-0.4,0.8-0.9,0.8-1.4c0-0.6-0.4-1.1-1.3-1.4c-0.9-0.3-1.9-0.6-3.1-0.9c-1.2-0.2-2.5-0.5-3.7-0.9
		s-2.3-1-3.2-1.9C519.3,98.1,518.9,96.9,518.9,95.5z"/>
</g>
<g>
	<path class="st3" d="M230.8,129.5v3.5c1.5-2.6,3.8-3.8,7-3.8c1.7,0,3.2,0.4,4.6,1.2c1.3,0.8,2.3,2,3,3.5c0.8-1.5,1.8-2.6,3.2-3.4
		c1.4-0.8,2.9-1.2,4.7-1.2c2.5,0,4.6,0.8,6.2,2.5c1.6,1.6,2.4,4,2.4,6.9v13h-4.6v-12.3c0-2-0.5-3.5-1.5-4.5s-2.3-1.6-4-1.6
		c-1.7,0-3.1,0.5-4,1.6s-1.5,2.6-1.5,4.5v12.3h-4.5v-12.3c0-2-0.5-3.5-1.5-4.5c-1-1.1-2.3-1.6-4-1.6c-1.7,0-3.1,0.5-4.1,1.6
		s-1.5,2.6-1.5,4.5v12.3h-4.6v-22H230.8z"/>
	<path class="st3" d="M277.4,151.9c-3.2,0-5.9-1-7.9-3.1c-2.1-2.1-3.1-4.8-3.1-8.2s1.1-6.1,3.2-8.2c2.1-2.1,4.8-3.1,8-3.1
		c3.2,0,5.9,1,8,3.1c2.1,2.1,3.2,4.8,3.2,8.2s-1.1,6.1-3.3,8.2C283.3,150.9,280.6,151.9,277.4,151.9z M282.1,146.1
		c1.3-1.3,2-3.2,2-5.6s-0.6-4.2-1.9-5.5c-1.3-1.3-2.9-2-4.7-2c-1.8,0-3.4,0.7-4.6,2c-1.3,1.3-1.9,3.2-1.9,5.6s0.6,4.2,1.8,5.6
		s2.8,2,4.6,2C279.2,148.1,280.8,147.4,282.1,146.1z"/>
	<path class="st3" d="M290.7,129.5h4.9l6.2,18l6.2-18h4.9l-8.4,22h-5.5L290.7,129.5z"/>
	<path class="st3" d="M325.7,151.9c-3.2,0-5.8-1-7.8-3.1s-3-4.8-3-8.3c0-3.4,1-6.2,3-8.3c2-2.1,4.6-3.1,7.9-3.1c3.2,0,5.8,1,7.8,3
		s3,4.6,3,7.8c0,0.8-0.1,1.5-0.2,2.2h-16.9c0.1,1.8,0.7,3.3,1.9,4.4c1.1,1.1,2.6,1.6,4.3,1.6c2.5,0,4.2-1,5.2-3.1h4.9
		c-0.7,2-1.9,3.7-3.6,5C330.4,151.3,328.2,151.9,325.7,151.9z M330,134.6c-1.2-1.1-2.6-1.6-4.3-1.6s-3.1,0.5-4.2,1.6
		c-1.1,1.1-1.8,2.5-1.9,4.3h12.2C331.8,137.1,331.2,135.7,330,134.6z"/>
	<path class="st3" d="M345.6,129.5v3.5c1.5-2.6,3.8-3.8,7-3.8c1.7,0,3.2,0.4,4.6,1.2c1.3,0.8,2.3,2,3,3.5c0.8-1.5,1.8-2.6,3.2-3.4
		c1.4-0.8,2.9-1.2,4.7-1.2c2.5,0,4.6,0.8,6.2,2.5c1.6,1.6,2.4,4,2.4,6.9v13h-4.6v-12.3c0-2-0.5-3.5-1.5-4.5c-1-1.1-2.3-1.6-4-1.6
		c-1.7,0-3.1,0.5-4,1.6c-1,1.1-1.5,2.6-1.5,4.5v12.3h-4.5v-12.3c0-2-0.5-3.5-1.5-4.5c-1-1.1-2.3-1.6-4-1.6c-1.7,0-3.1,0.5-4.1,1.6
		s-1.5,2.6-1.5,4.5v12.3h-4.6v-22H345.6z"/>
	<path class="st3" d="M391.9,151.9c-3.2,0-5.8-1-7.8-3.1s-3-4.8-3-8.3c0-3.4,1-6.2,3-8.3c2-2.1,4.6-3.1,7.9-3.1s5.8,1,7.8,3
		s3,4.6,3,7.8c0,0.8-0.1,1.5-0.2,2.2h-16.9c0.1,1.8,0.7,3.3,1.9,4.4c1.1,1.1,2.6,1.6,4.3,1.6c2.5,0,4.2-1,5.2-3.1h4.9
		c-0.7,2-1.9,3.7-3.6,5C396.7,151.3,394.5,151.9,391.9,151.9z M396.3,134.6c-1.2-1.1-2.6-1.6-4.3-1.6s-3.1,0.5-4.2,1.6
		c-1.1,1.1-1.8,2.5-1.9,4.3h12.2C398,137.1,397.4,135.7,396.3,134.6z"/>
	<path class="st3" d="M411.9,129.5v3.5c1.5-2.6,3.8-3.8,7-3.8c2.5,0,4.5,0.8,6.1,2.5c1.6,1.7,2.4,4,2.4,6.9v13h-4.5v-12.3
		c0-2-0.5-3.5-1.5-4.5s-2.3-1.6-4-1.6c-1.7,0-3.1,0.5-4.1,1.6s-1.5,2.6-1.5,4.5v12.3h-4.6v-22H411.9z"/>
	<path class="st3" d="M443.9,133.2h-5.4v12.2c0,0.8,0.2,1.4,0.6,1.8s1,0.5,2,0.5h2.8v3.8h-3.6c-4.2,0-6.4-2-6.4-6.1v-12.2h-2.6v-3.7
		h2.6V124h4.6v5.5h5.4V133.2z"/>
</g>
<g>
	<path class="st7" d="M206.7,155.9l-3-5.2c-20.4,11.8-45.3,11.3-65.2-1.1c0-2.8,0.6-8.3,1.1-9.9c9.4,6.9,20.9,10.7,32.6,10.7
		c4.8,0,9.6-0.6,14.3-1.9l-1.6-5.8c-15.1,4.1-31.5,0.6-43.5-9.2c1-3,2.1-5.9,3.3-8.8c7.6,7.2,17.4,11,27.4,11c6.8,0,13.7-1.8,20-5.4
		l-3-5.2c-7.8,4.5-16.8,5.3-25.1,3.2c20.3-12.7,32.7-35.3,32.7-59.3h-6c0,24-13,45.6-34,56.6c-2.9-1.5-5.6-3.3-8-5.6
		c15.5-6.6,27.2-19.9,31.5-36.4l-5.8-1.5c-3.6,13.7-12.8,25-25.3,31.2c1.3-3.8,2.3-8.2,2.8-12.5C161.3,93.3,167,82,167,69h-6
		c0,9-3.3,17.3-9.1,23.5c-0.1-2.3-0.4-4.5-0.9-7c-4.1-21.4-16.5-39.3-33.8-49.3l-3,5.2c15.9,9.2,27.1,25.7,30.9,45.3
		c2.7,13.8-1.4,23.9-5.6,34.5c-2.8,7-5.7,14.3-6.8,22.8c-1.9,15.5,5.8,30.6,19.6,38.6l3-5.2c-7.8-4.5-13.4-12-15.7-20.3
		c10.1,5.4,21.3,8.1,32.4,8.1C184,165.2,195.9,162.1,206.7,155.9z"/>
	<path class="st7" d="M109.4,157.2c-2.7-13.8,1.4-23.9,5.6-34.5c2.8-7,5.7-14.3,6.8-22.8c1.9-15.5-5.8-30.6-19.6-38.6l-3,5.2
		c7.6,4.4,13.1,11.6,15.5,19.8c-21-11.1-46.3-10.8-67.1,1.3l3,5.2C71,80.9,96,81.4,116,93.9c0.6,1.7,0.3,5.6-1,10
		c-13.4-10-31-13.4-47.2-8.9l1.6,5.8c15.2-4.2,31.8-0.5,43.9,9.5c-1,3-2.1,6-3.3,8.8c-12.6-12.3-32.2-14.8-47.7-5.9l3,5.2
		c7.7-4.5,16.7-5.9,25-3.9C70.1,127,57.7,149,57.7,173h6c0-23,13-44.8,33.9-55.9c2.9,1.5,5.7,3.6,8.1,5.9
		c-15.5,6.6-27.2,20.1-31.5,36.5l5.8,1.6c3.6-13.8,13.1-25.2,25.8-31.4c-1.3,3.9-2.4,7.6-2.9,11.9c-9.7,6.8-15.7,18.3-15.7,31.3h6
		c0-9,3.5-17.2,9.3-23.1c0.1,2.6,0.4,5.4,0.9,8.2c4.1,21.4,16.5,39.4,33.8,49.5l3-5.2C124.5,193.3,113.2,176.8,109.4,157.2z"/>
	<path class="st7" d="M136.8,93.2c0-18.5-15.4-35.5-16-36.2l-4.4,4.1c0.1,0.2,14.5,16,14.5,32.1c0,10.1-3.2,18-6.5,26.4
		c-3.4,8.4-6.8,17-6.8,27.8c0,22.4,15.5,38.4,16.2,39l4.3-4.2c-0.1-0.1-14.5-14.9-14.5-34.8c0-9.6,3.1-17.3,6.4-25.5
		C133.2,113.3,136.8,104.4,136.8,93.2z"/>
</g>
</svg>
